<svg width="144" height="144" viewBox="0 0 144 144" xmlns="http://www.w3.org/2000/svg">
  <defs>
    <linearGradient id="setBg" x1="0%" y1="0%" x2="100%" y2="100%">
      <stop offset="0%" stop-color="#1E1B4B"/>
      <stop offset="100%" stop-color="#0F172A"/>
    </linearGradient>
    <linearGradient id="setGear" x1="0%" y1="0%" x2="100%" y2="100%">
      <stop offset="0%" stop-color="#C4B5FD"/>
      <stop offset="100%" stop-color="#7C3AED"/>
    </linearGradient>
    <filter id="setGlow">
      <feGaussianBlur stdDeviation="2" result="blur"/>
      <feMerge>
        <feMergeNode in="blur"/>
        <feMergeNode in="SourceGraphic"/>
      </feMerge>
    </filter>
  </defs>
  <rect width="144" height="144" rx="18" fill="url(#setBg)"/>
  <!-- Gear shape using a proper gear path -->
  <path d="M80 28H64L62 40L54 44L44 38L32 50L38 60L34 68L22 70V86L34 88L38 96L32 106L44 118L54 112L62 116L64 128H80L82 116L90 112L100 118L112 106L106 96L110 88L122 86V70L110 68L106 60L112 50L100 38L90 44L82 40L80 28Z" fill="url(#setGear)" filter="url(#setGlow)"/>
  <!-- Inner circle cutout -->
  <circle cx="72" cy="78" r="18" fill="url(#setBg)"/>
  <circle cx="72" cy="78" r="14" stroke="#A78BFA" stroke-width="3" fill="none" opacity="0.5"/>
  <!-- Center dot -->
  <circle cx="72" cy="78" r="5" fill="#C4B5FD"/>
</svg>
